<?xml version="1.0" standalone="no"?><svg xmlns="http://www.w3.org/2000/svg" viewBox="0 0 1440 320"><path fill="#0099ff" fill-opacity="1" d="M0,128L11.4,138.7C22.9,149,46,171,69,170.7C91.4,171,114,149,137,160C160,171,183,213,206,208C228.6,203,251,149,274,154.7C297.1,160,320,224,343,218.7C365.7,213,389,139,411,96C434.3,53,457,43,480,42.7C502.9,43,526,53,549,80C571.4,107,594,149,617,170.7C640,192,663,192,686,170.7C708.6,149,731,107,754,90.7C777.1,75,800,85,823,106.7C845.7,128,869,160,891,149.3C914.3,139,937,85,960,106.7C982.9,128,1006,224,1029,240C1051.4,256,1074,192,1097,192C1120,192,1143,256,1166,234.7C1188.6,213,1211,107,1234,106.7C1257.1,107,1280,213,1303,266.7C1325.7,320,1349,320,1371,309.3C1394.3,299,1417,277,1429,266.7L1440,256L1440,320L1428.6,320C1417.1,320,1394,320,1371,320C1348.6,320,1326,320,1303,320C1280,320,1257,320,1234,320C1211.4,320,1189,320,1166,320C1142.9,320,1120,320,1097,320C1074.3,320,1051,320,1029,320C1005.7,320,983,320,960,320C937.1,320,914,320,891,320C868.6,320,846,320,823,320C800,320,777,320,754,320C731.4,320,709,320,686,320C662.9,320,640,320,617,320C594.3,320,571,320,549,320C525.7,320,503,320,480,320C457.1,320,434,320,411,320C388.6,320,366,320,343,320C320,320,297,320,274,320C251.4,320,229,320,206,320C182.9,320,160,320,137,320C114.3,320,91,320,69,320C45.7,320,23,320,11,320L0,320Z"></path></svg>